<svg xmlns="http://www.w3.org/2000/svg" xmlns:xlink="http://www.w3.org/1999/xlink" width="500" zoomAndPan="magnify" viewBox="0 0 375 374.999991" height="500" preserveAspectRatio="xMidYMid meet" version="1.0"><defs><g/><clipPath id="62100a101d"><path d="M 12.011719 37.5 L 363 37.5 L 363 318 L 12.011719 318 Z M 12.011719 37.5 " clip-rule="nonzero"/></clipPath></defs><g clip-path="url(#62100a101d)"><path fill="#a6a6a6" d="M 345.4375 37.5 L 29.558594 37.5 C 28.984375 37.5 28.410156 37.527344 27.839844 37.585938 C 27.265625 37.640625 26.699219 37.726562 26.136719 37.835938 C 25.570312 37.949219 25.015625 38.089844 24.464844 38.253906 C 23.914062 38.421875 23.375 38.617188 22.84375 38.835938 C 22.3125 39.054688 21.792969 39.300781 21.285156 39.570312 C 20.78125 39.84375 20.289062 40.136719 19.808594 40.457031 C 19.332031 40.777344 18.871094 41.117188 18.425781 41.484375 C 17.980469 41.847656 17.554688 42.234375 17.148438 42.640625 C 16.742188 43.046875 16.359375 43.472656 15.992188 43.914062 C 15.628906 44.359375 15.285156 44.820312 14.96875 45.300781 C 14.648438 45.777344 14.351562 46.269531 14.082031 46.777344 C 13.8125 47.285156 13.566406 47.800781 13.347656 48.332031 C 13.125 48.863281 12.933594 49.40625 12.765625 49.953125 C 12.597656 50.503906 12.460938 51.0625 12.347656 51.625 C 12.234375 52.1875 12.152344 52.757812 12.09375 53.328125 C 12.039062 53.902344 12.011719 54.472656 12.011719 55.046875 L 12.011719 300.730469 C 12.011719 301.308594 12.039062 301.878906 12.09375 302.453125 C 12.152344 303.023438 12.234375 303.59375 12.347656 304.15625 C 12.460938 304.71875 12.597656 305.277344 12.765625 305.828125 C 12.933594 306.375 13.125 306.917969 13.347656 307.449219 C 13.566406 307.980469 13.8125 308.496094 14.082031 309.003906 C 14.351562 309.511719 14.648438 310.003906 14.96875 310.480469 C 15.285156 310.960938 15.628906 311.421875 15.992188 311.867188 C 16.359375 312.308594 16.742188 312.734375 17.148438 313.140625 C 17.554688 313.546875 17.980469 313.933594 18.425781 314.296875 C 18.871094 314.664062 19.332031 315.003906 19.808594 315.324219 C 20.289062 315.644531 20.78125 315.9375 21.285156 316.210938 C 21.792969 316.480469 22.3125 316.726562 22.84375 316.945312 C 23.375 317.164062 23.914062 317.359375 24.464844 317.527344 C 25.015625 317.691406 25.570312 317.832031 26.136719 317.945312 C 26.699219 318.054688 27.265625 318.140625 27.839844 318.195312 C 28.410156 318.253906 28.984375 318.28125 29.558594 318.28125 L 345.4375 318.28125 C 346.011719 318.28125 346.585938 318.253906 347.15625 318.195312 C 347.730469 318.140625 348.296875 318.054688 348.863281 317.945312 C 349.425781 317.832031 349.980469 317.691406 350.53125 317.527344 C 351.082031 317.359375 351.621094 317.164062 352.152344 316.945312 C 352.683594 316.726562 353.203125 316.480469 353.710938 316.210938 C 354.21875 315.9375 354.710938 315.644531 355.1875 315.324219 C 355.664062 315.003906 356.125 314.664062 356.570312 314.296875 C 357.015625 313.933594 357.441406 313.546875 357.847656 313.140625 C 358.253906 312.734375 358.636719 312.308594 359.003906 311.867188 C 359.367188 311.421875 359.710938 310.960938 360.027344 310.480469 C 360.347656 310.003906 360.644531 309.511719 360.914062 309.003906 C 361.183594 308.496094 361.429688 307.980469 361.652344 307.449219 C 361.871094 306.917969 362.0625 306.375 362.230469 305.828125 C 362.398438 305.277344 362.539062 304.71875 362.648438 304.15625 C 362.761719 303.59375 362.847656 303.023438 362.902344 302.453125 C 362.957031 301.878906 362.988281 301.308594 362.988281 300.730469 L 362.988281 55.046875 C 362.988281 54.472656 362.957031 53.902344 362.902344 53.328125 C 362.847656 52.757812 362.761719 52.1875 362.648438 51.625 C 362.539062 51.0625 362.398438 50.503906 362.230469 49.953125 C 362.0625 49.40625 361.871094 48.863281 361.652344 48.332031 C 361.429688 47.800781 361.183594 47.285156 360.914062 46.777344 C 360.644531 46.269531 360.347656 45.777344 360.027344 45.300781 C 359.710938 44.820312 359.367188 44.359375 359.003906 43.914062 C 358.636719 43.472656 358.253906 43.046875 357.847656 42.640625 C 357.441406 42.234375 357.015625 41.847656 356.570312 41.484375 C 356.125 41.117188 355.664062 40.777344 355.1875 40.457031 C 354.710938 40.136719 354.21875 39.84375 353.710938 39.570312 C 353.203125 39.300781 352.683594 39.054688 352.152344 38.835938 C 351.621094 38.617188 351.082031 38.421875 350.53125 38.253906 C 349.980469 38.089844 349.425781 37.949219 348.863281 37.835938 C 348.296875 37.726562 347.730469 37.640625 347.15625 37.585938 C 346.585938 37.527344 346.011719 37.5 345.4375 37.5 Z M 99.753906 90.144531 C 100.902344 90.148438 102.050781 90.203125 103.195312 90.316406 C 104.339844 90.429688 105.472656 90.597656 106.601562 90.820312 C 107.730469 91.046875 108.84375 91.324219 109.941406 91.65625 C 111.042969 91.992188 112.125 92.378906 113.183594 92.816406 C 114.246094 93.257812 115.285156 93.75 116.300781 94.289062 C 117.3125 94.832031 118.296875 95.421875 119.253906 96.0625 C 120.210938 96.699219 121.132812 97.382812 122.019531 98.113281 C 122.910156 98.84375 123.757812 99.613281 124.570312 100.425781 C 125.386719 101.238281 126.15625 102.089844 126.886719 102.976562 C 127.613281 103.867188 128.296875 104.789062 128.9375 105.746094 C 129.574219 106.699219 130.164062 107.683594 130.707031 108.699219 C 131.25 109.714844 131.742188 110.75 132.179688 111.8125 C 132.621094 112.875 133.007812 113.957031 133.339844 115.054688 C 133.675781 116.15625 133.953125 117.269531 134.175781 118.398438 C 134.402344 119.523438 134.570312 120.660156 134.683594 121.804688 C 134.796875 122.949219 134.851562 124.09375 134.851562 125.242188 C 134.851562 126.394531 134.796875 127.539062 134.683594 128.683594 C 134.570312 129.828125 134.402344 130.964844 134.175781 132.089844 C 133.953125 133.21875 133.675781 134.332031 133.339844 135.433594 C 133.007812 136.53125 132.621094 137.613281 132.179688 138.675781 C 131.742188 139.738281 131.25 140.773438 130.707031 141.789062 C 130.164062 142.804688 129.574219 143.789062 128.9375 144.742188 C 128.296875 145.699219 127.613281 146.621094 126.886719 147.511719 C 126.15625 148.398438 125.386719 149.25 124.570312 150.0625 C 123.757812 150.875 122.910156 151.644531 122.019531 152.375 C 121.132812 153.105469 120.210938 153.789062 119.253906 154.425781 C 118.296875 155.066406 117.3125 155.65625 116.300781 156.199219 C 115.285156 156.738281 114.246094 157.230469 113.183594 157.671875 C 112.125 158.109375 111.042969 158.496094 109.941406 158.832031 C 108.84375 159.164062 107.730469 159.441406 106.601562 159.667969 C 105.472656 159.890625 104.339844 160.058594 103.195312 160.171875 C 102.050781 160.285156 100.902344 160.339844 99.753906 160.339844 C 98.605469 160.339844 97.457031 160.285156 96.3125 160.171875 C 95.171875 160.058594 94.035156 159.890625 92.90625 159.667969 C 91.78125 159.441406 90.664062 159.164062 89.566406 158.832031 C 88.464844 158.496094 87.386719 158.109375 86.324219 157.671875 C 85.261719 157.230469 84.222656 156.738281 83.210938 156.199219 C 82.195312 155.65625 81.210938 155.066406 80.253906 154.425781 C 79.300781 153.789062 78.378906 153.105469 77.488281 152.375 C 76.601562 151.644531 75.75 150.875 74.9375 150.0625 C 74.125 149.25 73.351562 148.398438 72.625 147.511719 C 71.894531 146.621094 71.210938 145.699219 70.570312 144.742188 C 69.933594 143.789062 69.34375 142.804688 68.800781 141.789062 C 68.257812 140.773438 67.769531 139.738281 67.328125 138.675781 C 66.886719 137.613281 66.5 136.53125 66.167969 135.433594 C 65.835938 134.332031 65.554688 133.21875 65.332031 132.089844 C 65.105469 130.964844 64.9375 129.828125 64.824219 128.683594 C 64.714844 127.539062 64.65625 126.394531 64.65625 125.242188 C 64.65625 124.09375 64.714844 122.949219 64.824219 121.804688 C 64.9375 120.660156 65.105469 119.523438 65.332031 118.398438 C 65.554688 117.269531 65.835938 116.15625 66.167969 115.054688 C 66.5 113.957031 66.886719 112.875 67.328125 111.8125 C 67.769531 110.75 68.257812 109.714844 68.800781 108.699219 C 69.34375 107.683594 69.933594 106.699219 70.570312 105.746094 C 71.210938 104.789062 71.894531 103.867188 72.625 102.976562 C 73.351562 102.089844 74.125 101.238281 74.9375 100.425781 C 75.75 99.613281 76.601562 98.84375 77.488281 98.113281 C 78.378906 97.382812 79.300781 96.699219 80.253906 96.0625 C 81.210938 95.421875 82.195312 94.832031 83.210938 94.289062 C 84.222656 93.75 85.261719 93.257812 86.324219 92.816406 C 87.386719 92.378906 88.464844 91.992188 89.566406 91.65625 C 90.664062 91.324219 91.78125 91.046875 92.90625 90.820312 C 94.035156 90.597656 95.171875 90.429688 96.3125 90.316406 C 97.457031 90.203125 98.605469 90.148438 99.753906 90.144531 Z M 327.890625 283.183594 L 47.109375 283.183594 L 47.109375 253.929688 L 117.304688 195.4375 L 167.441406 233.046875 L 257.695312 142.792969 L 327.890625 236.378906 Z M 327.890625 283.183594 " fill-opacity="1" fill-rule="nonzero"/></g><g fill="#737373" fill-opacity="1"><g transform="translate(83.402343, 343.124977)"><g><path d="M 5.90625 -11.421875 C 6.71875 -11.421875 7.414062 -11.269531 8 -10.96875 C 8.582031 -10.675781 9.019531 -10.257812 9.3125 -9.71875 C 9.613281 -9.175781 9.765625 -8.550781 9.765625 -7.84375 C 9.765625 -7.125 9.613281 -6.492188 9.3125 -5.953125 C 9.019531 -5.421875 8.582031 -5.003906 8 -4.703125 C 7.414062 -4.410156 6.71875 -4.265625 5.90625 -4.265625 L 3.75 -4.265625 L 3.75 0 L 1.484375 0 L 1.484375 -11.421875 Z M 5.609375 -6.046875 C 6.859375 -6.046875 7.484375 -6.644531 7.484375 -7.84375 C 7.484375 -9.039062 6.859375 -9.640625 5.609375 -9.640625 L 3.75 -9.640625 L 3.75 -6.046875 Z M 5.609375 -6.046875 "/></g></g></g><g fill="#737373" fill-opacity="1"><g transform="translate(93.837294, 343.124977)"><g><path d="M 2.328125 -9.65625 C 1.929688 -9.65625 1.609375 -9.769531 1.359375 -10 C 1.117188 -10.238281 1 -10.546875 1 -10.921875 C 1 -11.296875 1.117188 -11.597656 1.359375 -11.828125 C 1.609375 -12.066406 1.929688 -12.1875 2.328125 -12.1875 C 2.585938 -12.1875 2.816406 -12.128906 3.015625 -12.015625 C 3.222656 -11.910156 3.378906 -11.765625 3.484375 -11.578125 C 3.597656 -11.390625 3.65625 -11.171875 3.65625 -10.921875 C 3.65625 -10.679688 3.597656 -10.460938 3.484375 -10.265625 C 3.378906 -10.078125 3.222656 -9.925781 3.015625 -9.8125 C 2.816406 -9.707031 2.585938 -9.65625 2.328125 -9.65625 Z M 1.25 0 L 1.25 -8.625 L 3.40625 -8.625 L 3.40625 0 Z M 1.25 0 "/></g></g></g><g fill="#737373" fill-opacity="1"><g transform="translate(98.476786, 343.124977)"><g><path d="M 5.03125 0.171875 C 4.195312 0.171875 3.457031 0 2.8125 -0.34375 C 2.175781 -0.695312 1.675781 -1.207031 1.3125 -1.875 C 0.957031 -2.550781 0.78125 -3.363281 0.78125 -4.3125 C 0.78125 -5.257812 0.957031 -6.066406 1.3125 -6.734375 C 1.675781 -7.410156 2.175781 -7.921875 2.8125 -8.265625 C 3.445312 -8.609375 4.171875 -8.78125 4.984375 -8.78125 C 6.804688 -8.78125 7.972656 -8.125 8.484375 -6.8125 L 7 -5.75 L 6.828125 -5.75 C 6.648438 -6.15625 6.421875 -6.457031 6.140625 -6.65625 C 5.859375 -6.851562 5.472656 -6.953125 4.984375 -6.953125 C 4.359375 -6.953125 3.867188 -6.734375 3.515625 -6.296875 C 3.171875 -5.867188 3 -5.207031 3 -4.3125 C 3 -3.425781 3.175781 -2.765625 3.53125 -2.328125 C 3.882812 -1.890625 4.382812 -1.671875 5.03125 -1.671875 C 5.5 -1.671875 5.894531 -1.796875 6.21875 -2.046875 C 6.539062 -2.304688 6.773438 -2.671875 6.921875 -3.140625 L 7.078125 -3.15625 L 8.625 -2.3125 C 8.40625 -1.582031 8 -0.984375 7.40625 -0.515625 C 6.8125 -0.0546875 6.019531 0.171875 5.03125 0.171875 Z M 5.03125 0.171875 "/></g></g></g><g fill="#737373" fill-opacity="1"><g transform="translate(107.357435, 343.124977)"><g><path d="M 1.25 0 L 1.25 -12.078125 L 3.40625 -12.078125 L 3.40625 -5.375 L 3.625 -5.375 L 6.109375 -8.625 L 8.3125 -8.625 L 8.3125 -8.4375 L 5.375 -4.65625 L 8.640625 -0.203125 L 8.640625 0 L 6.359375 0 L 3.625 -3.640625 L 3.40625 -3.640625 L 3.40625 0 Z M 1.25 0 "/></g></g></g><g fill="#737373" fill-opacity="1"><g transform="translate(116.003766, 343.124977)"><g/></g></g><g fill="#737373" fill-opacity="1"><g transform="translate(119.776288, 343.124977)"><g><path d="M 2.328125 -9.65625 C 1.929688 -9.65625 1.609375 -9.769531 1.359375 -10 C 1.117188 -10.238281 1 -10.546875 1 -10.921875 C 1 -11.296875 1.117188 -11.597656 1.359375 -11.828125 C 1.609375 -12.066406 1.929688 -12.1875 2.328125 -12.1875 C 2.585938 -12.1875 2.816406 -12.128906 3.015625 -12.015625 C 3.222656 -11.910156 3.378906 -11.765625 3.484375 -11.578125 C 3.597656 -11.390625 3.65625 -11.171875 3.65625 -10.921875 C 3.65625 -10.679688 3.597656 -10.460938 3.484375 -10.265625 C 3.378906 -10.078125 3.222656 -9.925781 3.015625 -9.8125 C 2.816406 -9.707031 2.585938 -9.65625 2.328125 -9.65625 Z M 1.25 0 L 1.25 -8.625 L 3.40625 -8.625 L 3.40625 0 Z M 1.25 0 "/></g></g></g><g fill="#737373" fill-opacity="1"><g transform="translate(124.41578, 343.124977)"><g><path d="M 1.25 0 L 1.25 -8.625 L 3.328125 -8.625 L 3.328125 -7.46875 L 3.484375 -7.4375 C 3.765625 -7.894531 4.09375 -8.234375 4.46875 -8.453125 C 4.851562 -8.671875 5.335938 -8.78125 5.921875 -8.78125 C 6.578125 -8.78125 7.101562 -8.648438 7.5 -8.390625 C 7.894531 -8.140625 8.179688 -7.765625 8.359375 -7.265625 L 8.53125 -7.265625 C 8.789062 -7.785156 9.128906 -8.164062 9.546875 -8.40625 C 9.972656 -8.65625 10.5 -8.78125 11.125 -8.78125 C 12.90625 -8.78125 13.796875 -7.785156 13.796875 -5.796875 L 13.796875 0 L 11.640625 0 L 11.640625 -5.53125 C 11.640625 -6.03125 11.539062 -6.390625 11.34375 -6.609375 C 11.144531 -6.835938 10.828125 -6.953125 10.390625 -6.953125 C 9.203125 -6.953125 8.609375 -6.160156 8.609375 -4.578125 L 8.609375 0 L 6.4375 0 L 6.4375 -5.53125 C 6.4375 -6.03125 6.335938 -6.390625 6.140625 -6.609375 C 5.941406 -6.835938 5.625 -6.953125 5.1875 -6.953125 C 4.625 -6.953125 4.1875 -6.765625 3.875 -6.390625 C 3.5625 -6.023438 3.40625 -5.4375 3.40625 -4.625 L 3.40625 0 Z M 1.25 0 "/></g></g></g><g fill="#737373" fill-opacity="1"><g transform="translate(139.31839, 343.124977)"><g><path d="M 3.359375 0.171875 C 2.804688 0.171875 2.328125 0.0664062 1.921875 -0.140625 C 1.515625 -0.347656 1.203125 -0.644531 0.984375 -1.03125 C 0.765625 -1.425781 0.65625 -1.898438 0.65625 -2.453125 C 0.65625 -2.960938 0.765625 -3.390625 0.984375 -3.734375 C 1.203125 -4.085938 1.539062 -4.375 2 -4.59375 C 2.457031 -4.8125 3.054688 -4.984375 3.796875 -5.109375 C 4.316406 -5.191406 4.707031 -5.28125 4.96875 -5.375 C 5.238281 -5.476562 5.421875 -5.59375 5.515625 -5.71875 C 5.609375 -5.84375 5.65625 -6 5.65625 -6.1875 C 5.65625 -6.46875 5.554688 -6.679688 5.359375 -6.828125 C 5.171875 -6.972656 4.851562 -7.046875 4.40625 -7.046875 C 3.925781 -7.046875 3.46875 -6.9375 3.03125 -6.71875 C 2.601562 -6.507812 2.234375 -6.226562 1.921875 -5.875 L 1.765625 -5.875 L 0.859375 -7.25 C 1.296875 -7.726562 1.828125 -8.101562 2.453125 -8.375 C 3.085938 -8.644531 3.773438 -8.78125 4.515625 -8.78125 C 5.660156 -8.78125 6.488281 -8.535156 7 -8.046875 C 7.507812 -7.566406 7.765625 -6.882812 7.765625 -6 L 7.765625 -2.25 C 7.765625 -1.863281 7.929688 -1.671875 8.265625 -1.671875 C 8.398438 -1.671875 8.53125 -1.695312 8.65625 -1.75 L 8.765625 -1.71875 L 8.921875 -0.203125 C 8.796875 -0.128906 8.625 -0.0664062 8.40625 -0.015625 C 8.195312 0.0351562 7.96875 0.0625 7.71875 0.0625 C 7.195312 0.0625 6.789062 -0.0351562 6.5 -0.234375 C 6.21875 -0.429688 6.015625 -0.742188 5.890625 -1.171875 L 5.71875 -1.1875 C 5.300781 -0.28125 4.515625 0.171875 3.359375 0.171875 Z M 4.046875 -1.453125 C 4.546875 -1.453125 4.945312 -1.617188 5.25 -1.953125 C 5.550781 -2.296875 5.703125 -2.765625 5.703125 -3.359375 L 5.703125 -4.234375 L 5.546875 -4.265625 C 5.421875 -4.160156 5.25 -4.070312 5.03125 -4 C 4.820312 -3.9375 4.519531 -3.867188 4.125 -3.796875 C 3.65625 -3.722656 3.316406 -3.585938 3.109375 -3.390625 C 2.910156 -3.203125 2.8125 -2.9375 2.8125 -2.59375 C 2.8125 -2.21875 2.921875 -1.929688 3.140625 -1.734375 C 3.359375 -1.546875 3.660156 -1.453125 4.046875 -1.453125 Z M 4.046875 -1.453125 "/></g></g></g><g fill="#737373" fill-opacity="1"><g transform="translate(148.402114, 343.124977)"><g><path d="M 4.46875 3.65625 C 3.050781 3.65625 2.003906 3.445312 1.328125 3.03125 C 0.648438 2.613281 0.3125 2.035156 0.3125 1.296875 C 0.3125 0.835938 0.453125 0.460938 0.734375 0.171875 C 1.023438 -0.117188 1.441406 -0.3125 1.984375 -0.40625 L 1.984375 -0.578125 C 1.691406 -0.753906 1.484375 -0.945312 1.359375 -1.15625 C 1.234375 -1.375 1.171875 -1.628906 1.171875 -1.921875 C 1.171875 -2.609375 1.617188 -3.070312 2.515625 -3.3125 L 2.515625 -3.484375 C 2.054688 -3.742188 1.707031 -4.070312 1.46875 -4.46875 C 1.238281 -4.863281 1.125 -5.335938 1.125 -5.890625 C 1.125 -6.460938 1.253906 -6.96875 1.515625 -7.40625 C 1.773438 -7.84375 2.160156 -8.179688 2.671875 -8.421875 C 3.179688 -8.660156 3.789062 -8.78125 4.5 -8.78125 C 5.21875 -8.78125 5.789062 -8.65625 6.21875 -8.40625 C 6.476562 -8.789062 6.628906 -9.238281 6.671875 -9.75 L 6.84375 -9.84375 L 8.390625 -9.46875 C 8.347656 -9.050781 8.226562 -8.703125 8.03125 -8.421875 C 7.84375 -8.148438 7.546875 -7.90625 7.140625 -7.6875 L 7.140625 -7.515625 C 7.617188 -7.085938 7.859375 -6.488281 7.859375 -5.71875 C 7.859375 -5.1875 7.722656 -4.707031 7.453125 -4.28125 C 7.191406 -3.863281 6.804688 -3.53125 6.296875 -3.28125 C 5.796875 -3.039062 5.195312 -2.921875 4.5 -2.921875 L 4.171875 -2.9375 C 3.960938 -2.945312 3.816406 -2.953125 3.734375 -2.953125 C 3.535156 -2.953125 3.378906 -2.894531 3.265625 -2.78125 C 3.148438 -2.675781 3.09375 -2.539062 3.09375 -2.375 C 3.09375 -2.195312 3.164062 -2.054688 3.3125 -1.953125 C 3.457031 -1.847656 3.671875 -1.789062 3.953125 -1.78125 L 5.890625 -1.71875 C 7.796875 -1.65625 8.75 -0.832031 8.75 0.75 C 8.75 1.3125 8.601562 1.804688 8.3125 2.234375 C 8.03125 2.671875 7.570312 3.015625 6.9375 3.265625 C 6.300781 3.523438 5.476562 3.65625 4.46875 3.65625 Z M 4.5 -4.4375 C 4.914062 -4.4375 5.238281 -4.554688 5.46875 -4.796875 C 5.707031 -5.046875 5.828125 -5.398438 5.828125 -5.859375 C 5.828125 -6.304688 5.707031 -6.648438 5.46875 -6.890625 C 5.238281 -7.140625 4.914062 -7.265625 4.5 -7.265625 C 4.070312 -7.265625 3.742188 -7.140625 3.515625 -6.890625 C 3.285156 -6.648438 3.171875 -6.304688 3.171875 -5.859375 C 3.171875 -5.398438 3.285156 -5.046875 3.515625 -4.796875 C 3.742188 -4.554688 4.070312 -4.4375 4.5 -4.4375 Z M 4.46875 2.09375 C 5.207031 2.09375 5.742188 1.988281 6.078125 1.78125 C 6.421875 1.570312 6.59375 1.300781 6.59375 0.96875 C 6.59375 0.695312 6.503906 0.492188 6.328125 0.359375 C 6.160156 0.234375 5.890625 0.164062 5.515625 0.15625 L 3.8125 0.078125 C 3.75 0.078125 3.691406 0.0703125 3.640625 0.0625 C 3.597656 0.0625 3.550781 0.0625 3.5 0.0625 C 3.132812 0.0625 2.859375 0.140625 2.671875 0.296875 C 2.484375 0.453125 2.390625 0.671875 2.390625 0.953125 C 2.390625 1.316406 2.5625 1.597656 2.90625 1.796875 C 3.257812 1.992188 3.78125 2.09375 4.46875 2.09375 Z M 4.46875 2.09375 "/></g></g></g><g fill="#737373" fill-opacity="1"><g transform="translate(157.360869, 343.124977)"><g><path d="M 8.515625 -3.828125 L 2.984375 -3.828125 C 3.046875 -3.078125 3.257812 -2.53125 3.625 -2.1875 C 3.988281 -1.84375 4.484375 -1.671875 5.109375 -1.671875 C 5.609375 -1.671875 6.007812 -1.765625 6.3125 -1.953125 C 6.625 -2.140625 6.875 -2.421875 7.0625 -2.796875 L 7.21875 -2.796875 L 8.65625 -1.875 C 8.375 -1.269531 7.945312 -0.773438 7.375 -0.390625 C 6.8125 -0.015625 6.054688 0.171875 5.109375 0.171875 C 4.222656 0.171875 3.453125 0 2.796875 -0.34375 C 2.148438 -0.6875 1.648438 -1.191406 1.296875 -1.859375 C 0.953125 -2.523438 0.78125 -3.34375 0.78125 -4.3125 C 0.78125 -5.289062 0.960938 -6.113281 1.328125 -6.78125 C 1.703125 -7.457031 2.203125 -7.957031 2.828125 -8.28125 C 3.460938 -8.613281 4.171875 -8.78125 4.953125 -8.78125 C 6.171875 -8.78125 7.101562 -8.457031 7.75 -7.8125 C 8.40625 -7.164062 8.734375 -6.21875 8.734375 -4.96875 C 8.734375 -4.519531 8.71875 -4.171875 8.6875 -3.921875 Z M 6.65625 -5.21875 C 6.632812 -5.875 6.484375 -6.351562 6.203125 -6.65625 C 5.921875 -6.957031 5.503906 -7.109375 4.953125 -7.109375 C 3.859375 -7.109375 3.21875 -6.476562 3.03125 -5.21875 Z M 6.65625 -5.21875 "/></g></g></g><g fill="#737373" fill-opacity="1"><g transform="translate(166.725775, 343.124977)"><g/></g></g><g fill="#737373" fill-opacity="1"><g transform="translate(170.498297, 343.124977)"><g><path d="M 8.734375 -11.421875 L 8.734375 -9.53125 L 3.75 -9.53125 L 3.75 -6.515625 L 8.265625 -6.515625 L 8.265625 -4.640625 L 3.75 -4.640625 L 3.75 0 L 1.484375 0 L 1.484375 -11.421875 Z M 8.734375 -11.421875 "/></g></g></g><g fill="#737373" fill-opacity="1"><g transform="translate(179.730416, 343.124977)"><g><path d="M 5.015625 0.171875 C 4.171875 0.171875 3.425781 0 2.78125 -0.34375 C 2.144531 -0.695312 1.648438 -1.207031 1.296875 -1.875 C 0.953125 -2.550781 0.78125 -3.363281 0.78125 -4.3125 C 0.78125 -5.257812 0.953125 -6.066406 1.296875 -6.734375 C 1.648438 -7.410156 2.144531 -7.921875 2.78125 -8.265625 C 3.425781 -8.609375 4.171875 -8.78125 5.015625 -8.78125 C 5.859375 -8.78125 6.597656 -8.609375 7.234375 -8.265625 C 7.867188 -7.921875 8.363281 -7.410156 8.71875 -6.734375 C 9.070312 -6.066406 9.25 -5.257812 9.25 -4.3125 C 9.25 -3.363281 9.070312 -2.550781 8.71875 -1.875 C 8.363281 -1.207031 7.867188 -0.695312 7.234375 -0.34375 C 6.597656 0 5.859375 0.171875 5.015625 0.171875 Z M 5.015625 -1.671875 C 6.347656 -1.671875 7.015625 -2.550781 7.015625 -4.3125 C 7.015625 -5.21875 6.84375 -5.882812 6.5 -6.3125 C 6.15625 -6.738281 5.660156 -6.953125 5.015625 -6.953125 C 3.671875 -6.953125 3 -6.070312 3 -4.3125 C 3 -2.550781 3.671875 -1.671875 5.015625 -1.671875 Z M 5.015625 -1.671875 "/></g></g></g><g fill="#737373" fill-opacity="1"><g transform="translate(189.743596, 343.124977)"><g><path d="M 1.25 0 L 1.25 -8.625 L 3.34375 -8.625 L 3.34375 -7.34375 L 3.515625 -7.3125 C 3.722656 -7.789062 3.992188 -8.140625 4.328125 -8.359375 C 4.671875 -8.585938 5.082031 -8.703125 5.5625 -8.703125 C 6.050781 -8.703125 6.425781 -8.617188 6.6875 -8.453125 L 6.3125 -6.578125 L 6.15625 -6.546875 C 6.007812 -6.609375 5.867188 -6.648438 5.734375 -6.671875 C 5.609375 -6.703125 5.453125 -6.71875 5.265625 -6.71875 C 4.660156 -6.71875 4.195312 -6.503906 3.875 -6.078125 C 3.5625 -5.648438 3.40625 -4.96875 3.40625 -4.03125 L 3.40625 0 Z M 1.25 0 "/></g></g></g><g fill="#737373" fill-opacity="1"><g transform="translate(196.499764, 343.124977)"><g/></g></g><g fill="#737373" fill-opacity="1"><g transform="translate(200.272285, 343.124977)"><g><path d="M 1.90625 3.65625 C 1.539062 3.65625 1.207031 3.625 0.90625 3.5625 C 0.601562 3.507812 0.359375 3.4375 0.171875 3.34375 L 0.515625 1.59375 L 0.65625 1.546875 C 0.789062 1.617188 0.953125 1.675781 1.140625 1.71875 C 1.335938 1.757812 1.535156 1.78125 1.734375 1.78125 C 2.085938 1.78125 2.378906 1.734375 2.609375 1.640625 C 2.835938 1.546875 3.03125 1.394531 3.1875 1.1875 C 3.351562 0.976562 3.5 0.6875 3.625 0.3125 L 0.1875 -8.625 L 2.453125 -8.625 L 4.59375 -2.625 L 4.78125 -2.625 L 6.875 -8.625 L 9.078125 -8.625 L 5.609375 0.546875 C 5.335938 1.285156 5.035156 1.878906 4.703125 2.328125 C 4.367188 2.773438 3.976562 3.109375 3.53125 3.328125 C 3.082031 3.546875 2.539062 3.65625 1.90625 3.65625 Z M 1.90625 3.65625 "/></g></g></g><g fill="#737373" fill-opacity="1"><g transform="translate(209.520026, 343.124977)"><g><path d="M 5.015625 0.171875 C 4.171875 0.171875 3.425781 0 2.78125 -0.34375 C 2.144531 -0.695312 1.648438 -1.207031 1.296875 -1.875 C 0.953125 -2.550781 0.78125 -3.363281 0.78125 -4.3125 C 0.78125 -5.257812 0.953125 -6.066406 1.296875 -6.734375 C 1.648438 -7.410156 2.144531 -7.921875 2.78125 -8.265625 C 3.425781 -8.609375 4.171875 -8.78125 5.015625 -8.78125 C 5.859375 -8.78125 6.597656 -8.609375 7.234375 -8.265625 C 7.867188 -7.921875 8.363281 -7.410156 8.71875 -6.734375 C 9.070312 -6.066406 9.25 -5.257812 9.25 -4.3125 C 9.25 -3.363281 9.070312 -2.550781 8.71875 -1.875 C 8.363281 -1.207031 7.867188 -0.695312 7.234375 -0.34375 C 6.597656 0 5.859375 0.171875 5.015625 0.171875 Z M 5.015625 -1.671875 C 6.347656 -1.671875 7.015625 -2.550781 7.015625 -4.3125 C 7.015625 -5.21875 6.84375 -5.882812 6.5 -6.3125 C 6.15625 -6.738281 5.660156 -6.953125 5.015625 -6.953125 C 3.671875 -6.953125 3 -6.070312 3 -4.3125 C 3 -2.550781 3.671875 -1.671875 5.015625 -1.671875 Z M 5.015625 -1.671875 "/></g></g></g><g fill="#737373" fill-opacity="1"><g transform="translate(219.533206, 343.124977)"><g><path d="M 3.953125 0.171875 C 2.984375 0.171875 2.265625 -0.09375 1.796875 -0.625 C 1.335938 -1.15625 1.109375 -1.914062 1.109375 -2.90625 L 1.109375 -8.625 L 3.28125 -8.625 L 3.28125 -3.1875 C 3.28125 -2.65625 3.390625 -2.269531 3.609375 -2.03125 C 3.835938 -1.789062 4.191406 -1.671875 4.671875 -1.671875 C 5.265625 -1.671875 5.726562 -1.863281 6.0625 -2.25 C 6.394531 -2.644531 6.5625 -3.265625 6.5625 -4.109375 L 6.5625 -8.625 L 8.734375 -8.625 L 8.734375 0 L 6.65625 0 L 6.65625 -1.265625 L 6.484375 -1.3125 C 6.210938 -0.8125 5.875 -0.4375 5.46875 -0.1875 C 5.070312 0.0507812 4.566406 0.171875 3.953125 0.171875 Z M 3.953125 0.171875 "/></g></g></g><g fill="#737373" fill-opacity="1"><g transform="translate(229.499521, 343.124977)"><g><path d="M 1.25 0 L 1.25 -8.625 L 3.34375 -8.625 L 3.34375 -7.34375 L 3.515625 -7.3125 C 3.722656 -7.789062 3.992188 -8.140625 4.328125 -8.359375 C 4.671875 -8.585938 5.082031 -8.703125 5.5625 -8.703125 C 6.050781 -8.703125 6.425781 -8.617188 6.6875 -8.453125 L 6.3125 -6.578125 L 6.15625 -6.546875 C 6.007812 -6.609375 5.867188 -6.648438 5.734375 -6.671875 C 5.609375 -6.703125 5.453125 -6.71875 5.265625 -6.71875 C 4.660156 -6.71875 4.195312 -6.503906 3.875 -6.078125 C 3.5625 -5.648438 3.40625 -4.96875 3.40625 -4.03125 L 3.40625 0 Z M 1.25 0 "/></g></g></g><g fill="#737373" fill-opacity="1"><g transform="translate(236.255689, 343.124977)"><g/></g></g><g fill="#737373" fill-opacity="1"><g transform="translate(240.028211, 343.124977)"><g><path d="M 8.859375 -7.125 L 8.859375 -11.421875 L 11.109375 -11.421875 L 11.109375 0 L 8.859375 0 L 8.859375 -5.203125 L 3.75 -5.203125 L 3.75 0 L 1.484375 0 L 1.484375 -11.421875 L 3.75 -11.421875 L 3.75 -7.125 Z M 8.859375 -7.125 "/></g></g></g><g fill="#737373" fill-opacity="1"><g transform="translate(252.626702, 343.124977)"><g><path d="M 5.015625 0.171875 C 4.171875 0.171875 3.425781 0 2.78125 -0.34375 C 2.144531 -0.695312 1.648438 -1.207031 1.296875 -1.875 C 0.953125 -2.550781 0.78125 -3.363281 0.78125 -4.3125 C 0.78125 -5.257812 0.953125 -6.066406 1.296875 -6.734375 C 1.648438 -7.410156 2.144531 -7.921875 2.78125 -8.265625 C 3.425781 -8.609375 4.171875 -8.78125 5.015625 -8.78125 C 5.859375 -8.78125 6.597656 -8.609375 7.234375 -8.265625 C 7.867188 -7.921875 8.363281 -7.410156 8.71875 -6.734375 C 9.070312 -6.066406 9.25 -5.257812 9.25 -4.3125 C 9.25 -3.363281 9.070312 -2.550781 8.71875 -1.875 C 8.363281 -1.207031 7.867188 -0.695312 7.234375 -0.34375 C 6.597656 0 5.859375 0.171875 5.015625 0.171875 Z M 5.015625 -1.671875 C 6.347656 -1.671875 7.015625 -2.550781 7.015625 -4.3125 C 7.015625 -5.21875 6.84375 -5.882812 6.5 -6.3125 C 6.15625 -6.738281 5.660156 -6.953125 5.015625 -6.953125 C 3.671875 -6.953125 3 -6.070312 3 -4.3125 C 3 -2.550781 3.671875 -1.671875 5.015625 -1.671875 Z M 5.015625 -1.671875 "/></g></g></g><g fill="#737373" fill-opacity="1"><g transform="translate(262.639881, 343.124977)"><g><path d="M 4.03125 0.171875 C 3.445312 0.171875 2.910156 0.101562 2.421875 -0.03125 C 1.929688 -0.175781 1.507812 -0.367188 1.15625 -0.609375 C 0.8125 -0.859375 0.554688 -1.140625 0.390625 -1.453125 L 1.59375 -2.75 L 1.765625 -2.75 C 2.046875 -2.363281 2.378906 -2.070312 2.765625 -1.875 C 3.160156 -1.6875 3.585938 -1.59375 4.046875 -1.59375 C 4.472656 -1.59375 4.789062 -1.664062 5 -1.8125 C 5.21875 -1.96875 5.328125 -2.1875 5.328125 -2.46875 C 5.328125 -2.6875 5.25 -2.867188 5.09375 -3.015625 C 4.9375 -3.160156 4.6875 -3.273438 4.34375 -3.359375 L 3.203125 -3.640625 C 2.347656 -3.835938 1.722656 -4.144531 1.328125 -4.5625 C 0.941406 -4.988281 0.75 -5.523438 0.75 -6.171875 C 0.75 -6.703125 0.882812 -7.164062 1.15625 -7.5625 C 1.425781 -7.957031 1.8125 -8.257812 2.3125 -8.46875 C 2.8125 -8.675781 3.390625 -8.78125 4.046875 -8.78125 C 4.828125 -8.78125 5.472656 -8.664062 5.984375 -8.4375 C 6.492188 -8.21875 6.890625 -7.921875 7.171875 -7.546875 L 6.015625 -6.296875 L 5.859375 -6.296875 C 5.617188 -6.566406 5.347656 -6.765625 5.046875 -6.890625 C 4.753906 -7.015625 4.421875 -7.078125 4.046875 -7.078125 C 3.191406 -7.078125 2.765625 -6.8125 2.765625 -6.28125 C 2.765625 -6.0625 2.84375 -5.878906 3 -5.734375 C 3.164062 -5.597656 3.445312 -5.484375 3.84375 -5.390625 L 4.90625 -5.15625 C 5.78125 -4.96875 6.421875 -4.664062 6.828125 -4.25 C 7.234375 -3.84375 7.4375 -3.289062 7.4375 -2.59375 C 7.4375 -2.039062 7.300781 -1.554688 7.03125 -1.140625 C 6.757812 -0.722656 6.367188 -0.398438 5.859375 -0.171875 C 5.347656 0.0546875 4.738281 0.171875 4.03125 0.171875 Z M 4.03125 0.171875 "/></g></g></g><g fill="#737373" fill-opacity="1"><g transform="translate(270.583259, 343.124977)"><g><path d="M 5.953125 -2.0625 L 6.515625 -0.453125 C 6.273438 -0.265625 5.976562 -0.113281 5.625 0 C 5.269531 0.113281 4.867188 0.171875 4.421875 0.171875 C 3.492188 0.171875 2.785156 -0.0820312 2.296875 -0.59375 C 1.816406 -1.101562 1.578125 -1.84375 1.578125 -2.8125 L 1.578125 -6.90625 L 0.265625 -6.90625 L 0.265625 -8.625 L 1.578125 -8.625 L 1.578125 -10.3125 L 3.734375 -10.65625 L 3.734375 -8.625 L 6.1875 -8.625 L 6.1875 -6.90625 L 3.734375 -6.90625 L 3.734375 -2.96875 C 3.734375 -2.539062 3.820312 -2.226562 4 -2.03125 C 4.175781 -1.84375 4.4375 -1.75 4.78125 -1.75 C 5.164062 -1.75 5.5 -1.851562 5.78125 -2.0625 Z M 5.953125 -2.0625 "/></g></g></g><g fill="#737373" fill-opacity="1"><g transform="translate(277.276942, 343.124977)"><g><path d="M 8.515625 -3.828125 L 2.984375 -3.828125 C 3.046875 -3.078125 3.257812 -2.53125 3.625 -2.1875 C 3.988281 -1.84375 4.484375 -1.671875 5.109375 -1.671875 C 5.609375 -1.671875 6.007812 -1.765625 6.3125 -1.953125 C 6.625 -2.140625 6.875 -2.421875 7.0625 -2.796875 L 7.21875 -2.796875 L 8.65625 -1.875 C 8.375 -1.269531 7.945312 -0.773438 7.375 -0.390625 C 6.8125 -0.015625 6.054688 0.171875 5.109375 0.171875 C 4.222656 0.171875 3.453125 0 2.796875 -0.34375 C 2.148438 -0.6875 1.648438 -1.191406 1.296875 -1.859375 C 0.953125 -2.523438 0.78125 -3.34375 0.78125 -4.3125 C 0.78125 -5.289062 0.960938 -6.113281 1.328125 -6.78125 C 1.703125 -7.457031 2.203125 -7.957031 2.828125 -8.28125 C 3.460938 -8.613281 4.171875 -8.78125 4.953125 -8.78125 C 6.171875 -8.78125 7.101562 -8.457031 7.75 -7.8125 C 8.40625 -7.164062 8.734375 -6.21875 8.734375 -4.96875 C 8.734375 -4.519531 8.71875 -4.171875 8.6875 -3.921875 Z M 6.65625 -5.21875 C 6.632812 -5.875 6.484375 -6.351562 6.203125 -6.65625 C 5.921875 -6.957031 5.503906 -7.109375 4.953125 -7.109375 C 3.859375 -7.109375 3.21875 -6.476562 3.03125 -5.21875 Z M 6.65625 -5.21875 "/></g></g></g><g fill="#737373" fill-opacity="1"><g transform="translate(286.641848, 343.124977)"><g><path d="M 3.578125 0.171875 C 2.804688 0.171875 2.210938 -0.0351562 1.796875 -0.453125 C 1.390625 -0.878906 1.1875 -1.519531 1.1875 -2.375 L 1.1875 -12.078125 L 3.359375 -12.078125 L 3.359375 -2.46875 C 3.359375 -1.9375 3.578125 -1.671875 4.015625 -1.671875 C 4.140625 -1.671875 4.269531 -1.691406 4.40625 -1.734375 L 4.515625 -1.703125 L 4.71875 -0.046875 C 4.59375 0.0234375 4.429688 0.078125 4.234375 0.109375 C 4.035156 0.148438 3.816406 0.171875 3.578125 0.171875 Z M 3.578125 0.171875 "/></g></g></g></svg>